<?xml version="1.0" standalone="no"?>
 <!DOCTYPE svg PUBLIC "-//W3C//DTD SVG 1.1//EN" 
 "http://www.w3.org/Graphics/SVG/1.1/DTD/svg11.dtd"> 
<svg xmlns="http://www.w3.org/2000/svg" version="1.1" 
    width="6.2103cm" height="4.5339cm" viewBox="0 0 24450 17850 ">
<title>SVG Picture created as double_in_cab_breakout-SilkS_Front.svg date 2012/10/31 21:45:05 </title>
  <desc>Picture generated by PCBNEW </desc>
<g style="fill:#000000; fill-opacity:1;stroke:#000000; stroke-opacity:1;
stroke-linecap:round; stroke-linejoin:round; "
 transform="translate(0 0) scale(1 1)">
</g>
<g style="fill:#000000; fill-opacity:0.0; 
stroke:#000000; stroke-width:150; stroke-opacity:1; 
stroke-linecap:round; stroke-linejoin:round;">
<path d="M1227 4524
L1227 13324
" />
<path d="M23227 4524
L23227 13324
" />
</g>
<g style="fill:#000000; fill-opacity:0.0; 
stroke:#000000; stroke-width:120; stroke-opacity:1; 
stroke-linecap:round; stroke-linejoin:round;">
<path d="M5751 9567
L4951 9567
" />
<path d="M5332 9567
L5332 9910
" />
<path d="M5751 9910
L4951 9910
" />
<path d="M5751 10196
L4951 10196
" />
<path d="M5827 10339
L5827 10796
" />
<path d="M5751 11225
L5751 10939
L4951 10939
" />
<path d="M5332 11425
L5332 11625
" />
<path d="M5751 11711
L5751 11425
L4951 11425
L4951 11711
" />
<path d="M5751 11968
L4951 11968
L4951 12111
L4989 12196
L5065 12254
L5141 12282
L5294 12311
L5408 12311
L5560 12282
L5637 12254
L5713 12196
L5751 12111
L5751 11968
" />
<path d="M8213 9538
L8251 9624
L8251 9767
L8213 9824
L8175 9853
L8098 9881
L8022 9881
L7946 9853
L7908 9824
L7870 9767
L7832 9653
L7794 9595
L7756 9567
L7679 9538
L7603 9538
L7527 9567
L7489 9595
L7451 9653
L7451 9795
L7489 9881
" />
<path d="M7451 10081
L8251 10224
L7679 10338
L8251 10452
L7451 10595
" />
<path d="M8251 10824
L7451 10824
" />
<path d="M7451 11024
L7451 11367
" />
<path d="M8251 11196
L7451 11196
" />
<path d="M8175 11910
L8213 11881
L8251 11795
L8251 11738
L8213 11653
L8137 11595
L8060 11567
L7908 11538
L7794 11538
L7641 11567
L7565 11595
L7489 11653
L7451 11738
L7451 11795
L7489 11881
L7527 11910
" />
<path d="M8251 12167
L7451 12167
" />
<path d="M7832 12167
L7832 12510
" />
<path d="M8251 12510
L7451 12510
" />
</g>
<g style="fill:#000000; fill-opacity:0.0; 
stroke:#000000; stroke-width:150; stroke-opacity:1; 
stroke-linecap:round; stroke-linejoin:round;">
<path d="M9227 9724
L9227 11824
" />
<path d="M9127 9724
L9127 11824
" />
<path d="M6627 9724
L6627 11824
" />
<path d="M6727 9724
L6727 11824
" />
</g>
<g style="fill:#000000; fill-opacity:0.0; 
stroke:#000000; stroke-width:120; stroke-opacity:1; 
stroke-linecap:round; stroke-linejoin:round;">
<path d="M19351 9667
L18551 9667
" />
<path d="M18932 9667
L18932 10010
" />
<path d="M19351 10010
L18551 10010
" />
<path d="M19351 10296
L18551 10296
" />
<path d="M19427 10439
L19427 10896
" />
<path d="M19351 11325
L19351 11039
L18551 11039
" />
<path d="M18932 11525
L18932 11725
" />
<path d="M19351 11811
L19351 11525
L18551 11525
L18551 11811
" />
<path d="M19351 12068
L18551 12068
L18551 12211
L18589 12296
L18665 12354
L18741 12382
L18894 12411
L19008 12411
L19160 12382
L19237 12354
L19313 12296
L19351 12211
L19351 12068
" />
</g>
<g style="fill:#000000; fill-opacity:0.0; 
stroke:#000000; stroke-width:150; stroke-opacity:1; 
stroke-linecap:round; stroke-linejoin:round;">
<path d="M15327 9724
L15327 11824
" />
<path d="M15227 9724
L15227 11824
" />
<path d="M17727 9724
L17727 11824
" />
<path d="M23227 4524
L1227 4524
" />
<path d="M23227 13324
L1227 13324
" />
</g>
<g style="fill:#000000; fill-opacity:0.0; 
stroke:#000000; stroke-width:120; stroke-opacity:1; 
stroke-linecap:round; stroke-linejoin:round;">
<path d="M21389 5667
L21351 5610
L21351 5524
L21389 5439
L21465 5381
L21541 5353
L21694 5324
L21808 5324
L21960 5353
L22037 5381
L22113 5439
L22151 5524
L22151 5581
L22113 5667
L22075 5696
L21808 5696
L21808 5581
" />
<path d="M22151 5953
L21351 5953
L22151 6296
L21351 6296
" />
<path d="M22151 6582
L21351 6582
L21351 6725
L21389 6810
L21465 6868
L21541 6896
L21694 6925
L21808 6925
L21960 6896
L22037 6868
L22113 6810
L22151 6725
L22151 6582
" />
<path d="M3065 6581
L3103 6638
L3103 6724
L3065 6809
L2989 6867
L2913 6895
L2760 6924
L2646 6924
L2494 6895
L2417 6867
L2341 6809
L2303 6724
L2303 6667
L2341 6581
L2379 6552
L2646 6552
L2646 6667
" />
<path d="M2303 6295
L3103 6295
L2303 5952
L3103 5952
" />
<path d="M2303 5666
L3103 5666
L3103 5523
L3065 5438
L2989 5380
L2913 5352
L2760 5323
L2646 5323
L2494 5352
L2417 5380
L2341 5438
L2303 5523
L2303 5666
" />
<path d="M2608 12780
L2608 12323
" />
<path d="M2303 12552
L2913 12552
" />
<path d="M3027 12066
L3065 12037
L3103 11980
L3103 11837
L3065 11780
L3027 11751
L2951 11723
L2875 11723
L2760 11751
L2303 12094
L2303 11723
" />
<path d="M2837 11209
L2303 11209
" />
<path d="M3141 11352
L2570 11495
L2570 11123
" />
<path d="M3103 10981
L2303 10781
L3103 10581
" />
<path d="M21846 10668
L21846 11125
" />
<path d="M22151 10896
L21541 10896
" />
<path d="M21427 11382
L21389 11411
L21351 11468
L21351 11611
L21389 11668
L21427 11697
L21503 11725
L21579 11725
L21694 11697
L22151 11354
L22151 11725
" />
<path d="M21617 12239
L22151 12239
" />
<path d="M21313 12096
L21884 11953
L21884 12325
" />
<path d="M21351 12467
L22151 12667
L21351 12867
" />
<path d="M10751 9853
L10751 9567
L9951 9567
" />
<path d="M9951 10167
L9951 10281
L9989 10339
L10065 10396
L10217 10424
L10484 10424
L10637 10396
L10713 10339
L10751 10281
L10751 10167
L10713 10110
L10637 10053
L10484 10024
L10217 10024
L10065 10053
L9989 10110
L9951 10167
" />
<path d="M10827 10539
L10827 10996
" />
<path d="M10751 11425
L10751 11139
L9951 11139
" />
<path d="M10332 11625
L10332 11825
" />
<path d="M10751 11911
L10751 11625
L9951 11625
L9951 11911
" />
<path d="M10751 12168
L9951 12168
L9951 12311
L9989 12396
L10065 12454
L10141 12482
L10294 12511
L10408 12511
L10560 12482
L10637 12454
L10713 12396
L10751 12311
L10751 12168
" />
<path d="M16813 9638
L16851 9724
L16851 9867
L16813 9924
L16775 9953
L16698 9981
L16622 9981
L16546 9953
L16508 9924
L16470 9867
L16432 9753
L16394 9695
L16356 9667
L16279 9638
L16203 9638
L16127 9667
L16089 9695
L16051 9753
L16051 9895
L16089 9981
" />
<path d="M16051 10181
L16851 10324
L16279 10438
L16851 10552
L16051 10695
" />
<path d="M16851 10924
L16051 10924
" />
<path d="M16051 11124
L16051 11467
" />
<path d="M16851 11296
L16051 11296
" />
<path d="M16775 12010
L16813 11981
L16851 11895
L16851 11838
L16813 11753
L16737 11695
L16660 11667
L16508 11638
L16394 11638
L16241 11667
L16165 11695
L16089 11753
L16051 11838
L16051 11895
L16089 11981
L16127 12010
" />
<path d="M16851 12267
L16051 12267
" />
<path d="M16432 12267
L16432 12610
" />
<path d="M16851 12610
L16051 12610
" />
<path d="M14351 9953
L14351 9667
L13551 9667
" />
<path d="M13551 10267
L13551 10381
L13589 10439
L13665 10496
L13817 10524
L14084 10524
L14237 10496
L14313 10439
L14351 10381
L14351 10267
L14313 10210
L14237 10153
L14084 10124
L13817 10124
L13665 10153
L13589 10210
L13551 10267
" />
<path d="M14427 10639
L14427 11096
" />
<path d="M14351 11525
L14351 11239
L13551 11239
" />
<path d="M13932 11725
L13932 11925
" />
<path d="M14351 12011
L14351 11725
L13551 11725
L13551 12011
" />
<path d="M14351 12268
L13551 12268
L13551 12411
L13589 12496
L13665 12554
L13741 12582
L13894 12611
L14008 12611
L14160 12582
L14237 12554
L14313 12496
L14351 12411
L14351 12268
" />
</g>
<g style="fill:#000000; fill-opacity:0.0; 
stroke:#000000; stroke-width:150; stroke-opacity:1; 
stroke-linecap:round; stroke-linejoin:round;">
<path d="M11627 9724
L11627 11824
" />
<path d="M17827 9724
L17827 11824
" />
<path d="M4227 9624
L4227 11724
" />
<path d="M12827 9724
L12827 11824
" />
<path d="M20227 9724
L20227 11824
" />
</g>
<g style="fill:#000000; fill-opacity:0.0; 
stroke:#000000; stroke-width:120; stroke-opacity:1; 
stroke-linecap:round; stroke-linejoin:round;">
<path d="M24137 7911
L23537 7911
L23537 8139
L23565 8197
L23594 8225
L23651 8254
L23737 8254
L23794 8225
L23823 8197
L23851 8139
L23851 7911
" />
<path d="M24137 8825
L24137 8482
" />
<path d="M24137 8654
L23537 8654
L23623 8597
L23680 8539
L23708 8482
" />
<path d="M23537 9196
L23537 9253
L23565 9310
L23594 9339
L23651 9368
L23765 9396
L23908 9396
L24023 9368
L24080 9339
L24108 9310
L24137 9253
L24137 9196
L24108 9139
L24080 9110
L24023 9082
L23908 9053
L23765 9053
L23651 9082
L23594 9110
L23565 9139
L23537 9196
" />
<path d="M23537 9767
L23537 9824
L23565 9881
L23594 9910
L23651 9939
L23765 9967
L23908 9967
L24023 9939
L24080 9910
L24108 9881
L24137 9824
L24137 9767
L24108 9710
L24080 9681
L24023 9653
L23908 9624
L23765 9624
L23651 9653
L23594 9681
L23565 9710
L23537 9767
" />
<path d="M19946 1910
L19974 1881
L20003 1795
L20003 1738
L19974 1653
L19917 1595
L19860 1567
L19746 1538
L19660 1538
L19546 1567
L19489 1595
L19431 1653
L19403 1738
L19403 1795
L19431 1881
L19460 1910
" />
<path d="M19403 2281
L19403 2395
L19431 2453
L19489 2510
L19603 2538
L19803 2538
L19917 2510
L19974 2453
L20003 2395
L20003 2281
L19974 2224
L19917 2167
L19803 2138
L19603 2138
L19489 2167
L19431 2224
L19403 2281
" />
<path d="M20003 2796
L19403 2796
L20003 3139
L19403 3139
" />
<path d="M20003 3425
L19403 3425
L20003 3768
L19403 3768
" />
<path d="M20060 3911
L20060 4368
" />
<path d="M19403 4425
L19403 4768
" />
<path d="M20003 4597
L19403 4597
" />
<path d="M19689 4968
L19689 5168
" />
<path d="M20003 5254
L20003 4968
L19403 4968
L19403 5254
" />
<path d="M20003 5854
L19717 5654
" />
<path d="M20003 5511
L19403 5511
L19403 5739
L19431 5797
L19460 5825
L19517 5854
L19603 5854
L19660 5825
L19689 5797
L19717 5739
L19717 5511
" />
<path d="M20003 6111
L19403 6111
L19831 6311
L19403 6511
L20003 6511
" />
<path d="M20060 6654
L20060 7111
" />
<path d="M19689 7454
L19717 7540
L19746 7568
L19803 7597
L19889 7597
L19946 7568
L19974 7540
L20003 7482
L20003 7254
L19403 7254
L19403 7454
L19431 7511
L19460 7540
L19517 7568
L19574 7568
L19631 7540
L19660 7511
L19689 7454
L19689 7254
" />
<path d="M20003 8140
L20003 7854
L19403 7854
" />
<path d="M19403 8454
L19403 8568
L19431 8626
L19489 8683
L19603 8711
L19803 8711
L19917 8683
L19974 8626
L20003 8568
L20003 8454
L19974 8397
L19917 8340
L19803 8311
L19603 8311
L19489 8340
L19431 8397
L19403 8454
" />
<path d="M19946 9312
L19974 9283
L20003 9197
L20003 9140
L19974 9055
L19917 8997
L19860 8969
L19746 8940
L19660 8940
L19546 8969
L19489 8997
L19431 9055
L19403 9140
L19403 9197
L19431 9283
L19460 9312
" />
<path d="M20003 9569
L19403 9569
" />
<path d="M20003 9912
L19660 9655
" />
<path d="M19403 9912
L19746 9569
" />
<path d="M20060 10026
L20060 10483
" />
<path d="M19460 10597
L19431 10626
L19403 10683
L19403 10826
L19431 10883
L19460 10912
L19517 10940
L19574 10940
L19660 10912
L20003 10569
L20003 10940
" />
<path d="M20003 11197
L19403 11197
L19403 11425
L19431 11483
L19460 11511
L19517 11540
L19603 11540
L19660 11511
L19689 11483
L19717 11425
L19717 11197
" />
<path d="M19403 11911
L19403 12025
L19431 12083
L19489 12140
L19603 12168
L19803 12168
L19917 12140
L19974 12083
L20003 12025
L20003 11911
L19974 11854
L19917 11797
L19803 11768
L19603 11768
L19489 11797
L19431 11854
L19403 11911
" />
<path d="M19974 12397
L20003 12483
L20003 12626
L19974 12683
L19946 12712
L19889 12740
L19831 12740
L19774 12712
L19746 12683
L19717 12626
L19689 12512
L19660 12454
L19631 12426
L19574 12397
L19517 12397
L19460 12426
L19431 12454
L19403 12512
L19403 12654
L19431 12740
" />
<path d="M20060 12854
L20060 13311
" />
<path d="M19403 13397
L19403 13768
L19631 13568
L19631 13654
L19660 13711
L19689 13740
L19746 13768
L19889 13768
L19946 13740
L19974 13711
L20003 13654
L20003 13482
L19974 13425
L19946 13397
" />
<path d="M20003 14025
L19403 14025
L19403 14253
L19431 14311
L19460 14339
L19517 14368
L19603 14368
L19660 14339
L19689 14311
L19717 14253
L19717 14025
" />
<path d="M19403 14911
L19403 14625
L19689 14596
L19660 14625
L19631 14682
L19631 14825
L19660 14882
L19689 14911
L19746 14939
L19889 14939
L19946 14911
L19974 14882
L20003 14825
L20003 14682
L19974 14625
L19946 14596
" />
<path d="M20003 15196
L19403 15196
L19831 15396
L19403 15596
L20003 15596
" />
<path d="M20003 15882
L19403 15882
L19831 16082
L19403 16282
L20003 16282
" />
<path d="M803 7911
L203 7911
L203 8139
L231 8197
L260 8225
L317 8254
L403 8254
L460 8225
L489 8197
L517 8139
L517 7911
" />
<path d="M803 8825
L803 8482
" />
<path d="M803 8654
L203 8654
L289 8597
L346 8539
L374 8482
" />
<path d="M203 9196
L203 9253
L231 9310
L260 9339
L317 9368
L431 9396
L574 9396
L689 9368
L746 9339
L774 9310
L803 9253
L803 9196
L774 9139
L746 9110
L689 9082
L574 9053
L431 9053
L317 9082
L260 9110
L231 9139
L203 9196
" />
<path d="M803 9967
L803 9624
" />
<path d="M803 9796
L203 9796
L289 9739
L346 9681
L374 9624
" />
<path d="M4880 1910
L4908 1881
L4937 1795
L4937 1738
L4908 1653
L4851 1595
L4794 1567
L4680 1538
L4594 1538
L4480 1567
L4423 1595
L4365 1653
L4337 1738
L4337 1795
L4365 1881
L4394 1910
" />
<path d="M4337 2281
L4337 2395
L4365 2453
L4423 2510
L4537 2538
L4737 2538
L4851 2510
L4908 2453
L4937 2395
L4937 2281
L4908 2224
L4851 2167
L4737 2138
L4537 2138
L4423 2167
L4365 2224
L4337 2281
" />
<path d="M4937 2796
L4337 2796
L4937 3139
L4337 3139
" />
<path d="M4937 3425
L4337 3425
L4937 3768
L4337 3768
" />
<path d="M4994 3911
L4994 4368
" />
<path d="M4337 4425
L4337 4768
" />
<path d="M4937 4597
L4337 4597
" />
<path d="M4623 4968
L4623 5168
" />
<path d="M4937 5254
L4937 4968
L4337 4968
L4337 5254
" />
<path d="M4937 5854
L4651 5654
" />
<path d="M4937 5511
L4337 5511
L4337 5739
L4365 5797
L4394 5825
L4451 5854
L4537 5854
L4594 5825
L4623 5797
L4651 5739
L4651 5511
" />
<path d="M4937 6111
L4337 6111
L4765 6311
L4337 6511
L4937 6511
" />
<path d="M4994 6654
L4994 7111
" />
<path d="M4623 7454
L4651 7540
L4680 7568
L4737 7597
L4823 7597
L4880 7568
L4908 7540
L4937 7482
L4937 7254
L4337 7254
L4337 7454
L4365 7511
L4394 7540
L4451 7568
L4508 7568
L4565 7540
L4594 7511
L4623 7454
L4623 7254
" />
<path d="M4937 8140
L4937 7854
L4337 7854
" />
<path d="M4337 8454
L4337 8568
L4365 8626
L4423 8683
L4537 8711
L4737 8711
L4851 8683
L4908 8626
L4937 8568
L4937 8454
L4908 8397
L4851 8340
L4737 8311
L4537 8311
L4423 8340
L4365 8397
L4337 8454
" />
<path d="M4880 9312
L4908 9283
L4937 9197
L4937 9140
L4908 9055
L4851 8997
L4794 8969
L4680 8940
L4594 8940
L4480 8969
L4423 8997
L4365 9055
L4337 9140
L4337 9197
L4365 9283
L4394 9312
" />
<path d="M4937 9569
L4337 9569
" />
<path d="M4937 9912
L4594 9655
" />
<path d="M4337 9912
L4680 9569
" />
<path d="M4994 10026
L4994 10483
" />
<path d="M4394 10597
L4365 10626
L4337 10683
L4337 10826
L4365 10883
L4394 10912
L4451 10940
L4508 10940
L4594 10912
L4937 10569
L4937 10940
" />
<path d="M4937 11197
L4337 11197
L4337 11425
L4365 11483
L4394 11511
L4451 11540
L4537 11540
L4594 11511
L4623 11483
L4651 11425
L4651 11197
" />
<path d="M4337 11911
L4337 12025
L4365 12083
L4423 12140
L4537 12168
L4737 12168
L4851 12140
L4908 12083
L4937 12025
L4937 11911
L4908 11854
L4851 11797
L4737 11768
L4537 11768
L4423 11797
L4365 11854
L4337 11911
" />
<path d="M4908 12397
L4937 12483
L4937 12626
L4908 12683
L4880 12712
L4823 12740
L4765 12740
L4708 12712
L4680 12683
L4651 12626
L4623 12512
L4594 12454
L4565 12426
L4508 12397
L4451 12397
L4394 12426
L4365 12454
L4337 12512
L4337 12654
L4365 12740
" />
<path d="M4994 12854
L4994 13311
" />
<path d="M4337 13397
L4337 13768
L4565 13568
L4565 13654
L4594 13711
L4623 13740
L4680 13768
L4823 13768
L4880 13740
L4908 13711
L4937 13654
L4937 13482
L4908 13425
L4880 13397
" />
<path d="M4937 14025
L4337 14025
L4337 14253
L4365 14311
L4394 14339
L4451 14368
L4537 14368
L4594 14339
L4623 14311
L4651 14253
L4651 14025
" />
<path d="M4337 14911
L4337 14625
L4623 14596
L4594 14625
L4565 14682
L4565 14825
L4594 14882
L4623 14911
L4680 14939
L4823 14939
L4880 14911
L4908 14882
L4937 14825
L4937 14682
L4908 14625
L4880 14596
" />
<path d="M4937 15196
L4337 15196
L4765 15396
L4337 15596
L4937 15596
" />
<path d="M4937 15882
L4337 15882
L4765 16082
L4337 16282
L4937 16282
" />
<path d="M7199 7694
L7199 8294
L7427 8294
L7485 8266
L7513 8237
L7542 8180
L7542 8094
L7513 8037
L7485 8008
L7427 7980
L7199 7980
" />
<path d="M8113 7694
L7770 7694
" />
<path d="M7942 7694
L7942 8294
L7885 8208
L7827 8151
L7770 8123
" />
<path d="M8627 8294
L8513 8294
L8456 8266
L8427 8237
L8370 8151
L8341 8037
L8341 7808
L8370 7751
L8398 7723
L8456 7694
L8570 7694
L8627 7723
L8656 7751
L8684 7808
L8684 7951
L8656 8008
L8627 8037
L8570 8066
L8456 8066
L8398 8037
L8370 8008
L8341 7951
" />
<path d="M4842 5585
L4813 5557
L4727 5528
L4670 5528
L4585 5557
L4527 5614
L4499 5671
L4470 5785
L4470 5871
L4499 5985
L4527 6042
L4585 6100
L4670 6128
L4727 6128
L4813 6100
L4842 6071
" />
<path d="M5213 6128
L5327 6128
L5385 6100
L5442 6042
L5470 5928
L5470 5728
L5442 5614
L5385 5557
L5327 5528
L5213 5528
L5156 5557
L5099 5614
L5070 5728
L5070 5928
L5099 6042
L5156 6100
L5213 6128
" />
<path d="M5728 5528
L5728 6128
L6071 5528
L6071 6128
" />
<path d="M6357 5528
L6357 6128
L6700 5528
L6700 6128
" />
<path d="M6843 5471
L7300 5471
" />
<path d="M7614 6128
L7614 5700
L7586 5614
L7529 5557
L7443 5528
L7386 5528
" />
<path d="M7871 5557
L7957 5528
L8100 5528
L8157 5557
L8186 5585
L8214 5642
L8214 5700
L8186 5757
L8157 5785
L8100 5814
L7986 5842
L7928 5871
L7900 5900
L7871 5957
L7871 6014
L7900 6071
L7928 6100
L7986 6128
L8128 6128
L8214 6100
" />
<path d="M8385 6128
L8728 6128
" />
<path d="M8557 5528
L8557 6128
" />
<path d="M8785 5471
L9242 5471
" />
<path d="M9385 5528
L9385 6128
L9613 6128
L9671 6100
L9699 6071
L9728 6014
L9728 5928
L9699 5871
L9671 5842
L9613 5814
L9385 5814
" />
<path d="M9985 5528
L9985 6128
" />
<path d="M9985 5842
L10328 5842
" />
<path d="M10328 5528
L10328 6128
" />
<path d="M10471 5471
L10928 5471
" />
<path d="M11042 6071
L11071 6100
L11128 6128
L11271 6128
L11328 6100
L11357 6071
L11385 6014
L11385 5957
L11357 5871
L11014 5528
L11385 5528
" />
<path d="M9699 7694
L9699 8294
L9927 8294
L9985 8266
L10013 8237
L10042 8180
L10042 8094
L10013 8037
L9985 8008
L9927 7980
L9699 7980
" />
<path d="M10613 7694
L10270 7694
" />
<path d="M10442 7694
L10442 8294
L10385 8208
L10327 8151
L10270 8123
" />
<path d="M11127 8094
L11127 7694
" />
<path d="M10984 8323
L10841 7894
L11213 7894
" />
<path d="M7342 5585
L7313 5557
L7227 5528
L7170 5528
L7085 5557
L7027 5614
L6999 5671
L6970 5785
L6970 5871
L6999 5985
L7027 6042
L7085 6100
L7170 6128
L7227 6128
L7313 6100
L7342 6071
" />
<path d="M7713 6128
L7827 6128
L7885 6100
L7942 6042
L7970 5928
L7970 5728
L7942 5614
L7885 5557
L7827 5528
L7713 5528
L7656 5557
L7599 5614
L7570 5728
L7570 5928
L7599 6042
L7656 6100
L7713 6128
" />
<path d="M8228 5528
L8228 6128
L8571 5528
L8571 6128
" />
<path d="M8857 5528
L8857 6128
L9200 5528
L9200 6128
" />
<path d="M9343 5471
L9800 5471
" />
<path d="M10114 6128
L10114 5700
L10086 5614
L10029 5557
L9943 5528
L9886 5528
" />
<path d="M10371 5557
L10457 5528
L10600 5528
L10657 5557
L10686 5585
L10714 5642
L10714 5700
L10686 5757
L10657 5785
L10600 5814
L10486 5842
L10428 5871
L10400 5900
L10371 5957
L10371 6014
L10400 6071
L10428 6100
L10486 6128
L10628 6128
L10714 6100
" />
<path d="M10885 6128
L11228 6128
" />
<path d="M11057 5528
L11057 6128
" />
<path d="M11285 5471
L11742 5471
" />
<path d="M11885 5528
L11885 6128
L12113 6128
L12171 6100
L12199 6071
L12228 6014
L12228 5928
L12199 5871
L12171 5842
L12113 5814
L11885 5814
" />
<path d="M12485 5528
L12485 6128
" />
<path d="M12485 5842
L12828 5842
" />
<path d="M12828 5528
L12828 6128
" />
<path d="M12971 5471
L13428 5471
" />
<path d="M13542 6071
L13571 6100
L13628 6128
L13771 6128
L13828 6100
L13857 6071
L13885 6014
L13885 5957
L13857 5871
L13514 5528
L13885 5528
" />
<path d="M13299 7694
L13299 8294
L13527 8294
L13585 8266
L13613 8237
L13642 8180
L13642 8094
L13613 8037
L13585 8008
L13527 7980
L13299 7980
" />
<path d="M14213 7694
L13870 7694
" />
<path d="M14042 7694
L14042 8294
L13985 8208
L13927 8151
L13870 8123
" />
<path d="M14413 8294
L14784 8294
L14584 8066
L14670 8066
L14727 8037
L14756 8008
L14784 7951
L14784 7808
L14756 7751
L14727 7723
L14670 7694
L14498 7694
L14441 7723
L14413 7751
" />
<path d="M10942 5585
L10913 5557
L10827 5528
L10770 5528
L10685 5557
L10627 5614
L10599 5671
L10570 5785
L10570 5871
L10599 5985
L10627 6042
L10685 6100
L10770 6128
L10827 6128
L10913 6100
L10942 6071
" />
<path d="M11313 6128
L11427 6128
L11485 6100
L11542 6042
L11570 5928
L11570 5728
L11542 5614
L11485 5557
L11427 5528
L11313 5528
L11256 5557
L11199 5614
L11170 5728
L11170 5928
L11199 6042
L11256 6100
L11313 6128
" />
<path d="M11828 5528
L11828 6128
L12171 5528
L12171 6128
" />
<path d="M12457 5528
L12457 6128
L12800 5528
L12800 6128
" />
<path d="M12943 5471
L13400 5471
" />
<path d="M13714 6128
L13714 5700
L13686 5614
L13629 5557
L13543 5528
L13486 5528
" />
<path d="M13971 5557
L14057 5528
L14200 5528
L14257 5557
L14286 5585
L14314 5642
L14314 5700
L14286 5757
L14257 5785
L14200 5814
L14086 5842
L14028 5871
L14000 5900
L13971 5957
L13971 6014
L14000 6071
L14028 6100
L14086 6128
L14228 6128
L14314 6100
" />
<path d="M14485 6128
L14828 6128
" />
<path d="M14657 5528
L14657 6128
" />
<path d="M14885 5471
L15342 5471
" />
<path d="M15485 5528
L15485 6128
L15713 6128
L15771 6100
L15799 6071
L15828 6014
L15828 5928
L15799 5871
L15771 5842
L15713 5814
L15485 5814
" />
<path d="M16085 5528
L16085 6128
" />
<path d="M16085 5842
L16428 5842
" />
<path d="M16428 5528
L16428 6128
" />
<path d="M16571 5471
L17028 5471
" />
<path d="M17142 6071
L17171 6100
L17228 6128
L17371 6128
L17428 6100
L17457 6071
L17485 6014
L17485 5957
L17457 5871
L17114 5528
L17485 5528
" />
<path d="M4699 7694
L4699 8294
L4927 8294
L4985 8266
L5013 8237
L5042 8180
L5042 8094
L5013 8037
L4985 8008
L4927 7980
L4699 7980
" />
<path d="M5613 7694
L5270 7694
" />
<path d="M5442 7694
L5442 8294
L5385 8208
L5327 8151
L5270 8123
" />
<path d="M6184 7694
L5841 7694
" />
<path d="M6013 7694
L6013 8294
L5956 8208
L5898 8151
L5841 8123
" />
<path d="M2342 5585
L2313 5557
L2227 5528
L2170 5528
L2085 5557
L2027 5614
L1999 5671
L1970 5785
L1970 5871
L1999 5985
L2027 6042
L2085 6100
L2170 6128
L2227 6128
L2313 6100
L2342 6071
" />
<path d="M2713 6128
L2827 6128
L2885 6100
L2942 6042
L2970 5928
L2970 5728
L2942 5614
L2885 5557
L2827 5528
L2713 5528
L2656 5557
L2599 5614
L2570 5728
L2570 5928
L2599 6042
L2656 6100
L2713 6128
" />
<path d="M3228 5528
L3228 6128
L3571 5528
L3571 6128
" />
<path d="M3857 5528
L3857 6128
L4200 5528
L4200 6128
" />
<path d="M4343 5471
L4800 5471
" />
<path d="M5114 6128
L5114 5700
L5086 5614
L5029 5557
L4943 5528
L4886 5528
" />
<path d="M5371 5557
L5457 5528
L5600 5528
L5657 5557
L5686 5585
L5714 5642
L5714 5700
L5686 5757
L5657 5785
L5600 5814
L5486 5842
L5428 5871
L5400 5900
L5371 5957
L5371 6014
L5400 6071
L5428 6100
L5486 6128
L5628 6128
L5714 6100
" />
<path d="M5885 6128
L6228 6128
" />
<path d="M6057 5528
L6057 6128
" />
<path d="M6285 5471
L6742 5471
" />
<path d="M6885 5528
L6885 6128
L7113 6128
L7171 6100
L7199 6071
L7228 6014
L7228 5928
L7199 5871
L7171 5842
L7113 5814
L6885 5814
" />
<path d="M7485 5528
L7485 6128
" />
<path d="M7485 5842
L7828 5842
" />
<path d="M7828 5528
L7828 6128
" />
<path d="M7971 5471
L8428 5471
" />
<path d="M8542 6071
L8571 6100
L8628 6128
L8771 6128
L8828 6100
L8857 6071
L8885 6014
L8885 5957
L8857 5871
L8514 5528
L8885 5528
" />
<path d="M18299 7694
L18299 8294
L18527 8294
L18585 8266
L18613 8237
L18642 8180
L18642 8094
L18613 8037
L18585 8008
L18527 7980
L18299 7980
" />
<path d="M19213 7694
L18870 7694
" />
<path d="M19042 7694
L19042 8294
L18985 8208
L18927 8151
L18870 8123
" />
<path d="M19584 8294
L19641 8294
L19698 8266
L19727 8237
L19756 8180
L19784 8066
L19784 7923
L19756 7808
L19727 7751
L19698 7723
L19641 7694
L19584 7694
L19527 7723
L19498 7751
L19470 7808
L19441 7923
L19441 8066
L19470 8180
L19498 8237
L19527 8266
L19584 8294
" />
<path d="M15942 5585
L15913 5557
L15827 5528
L15770 5528
L15685 5557
L15627 5614
L15599 5671
L15570 5785
L15570 5871
L15599 5985
L15627 6042
L15685 6100
L15770 6128
L15827 6128
L15913 6100
L15942 6071
" />
<path d="M16313 6128
L16427 6128
L16485 6100
L16542 6042
L16570 5928
L16570 5728
L16542 5614
L16485 5557
L16427 5528
L16313 5528
L16256 5557
L16199 5614
L16170 5728
L16170 5928
L16199 6042
L16256 6100
L16313 6128
" />
<path d="M16828 5528
L16828 6128
L17171 5528
L17171 6128
" />
<path d="M17457 5528
L17457 6128
L17800 5528
L17800 6128
" />
<path d="M17943 5471
L18400 5471
" />
<path d="M18714 6128
L18714 5700
L18686 5614
L18629 5557
L18543 5528
L18486 5528
" />
<path d="M18971 5557
L19057 5528
L19200 5528
L19257 5557
L19286 5585
L19314 5642
L19314 5700
L19286 5757
L19257 5785
L19200 5814
L19086 5842
L19028 5871
L19000 5900
L18971 5957
L18971 6014
L19000 6071
L19028 6100
L19086 6128
L19228 6128
L19314 6100
" />
<path d="M19485 6128
L19828 6128
" />
<path d="M19657 5528
L19657 6128
" />
<path d="M19885 5471
L20342 5471
" />
<path d="M20485 5528
L20485 6128
L20713 6128
L20771 6100
L20799 6071
L20828 6014
L20828 5928
L20799 5871
L20771 5842
L20713 5814
L20485 5814
" />
<path d="M21085 5528
L21085 6128
" />
<path d="M21085 5842
L21428 5842
" />
<path d="M21428 5528
L21428 6128
" />
<path d="M21571 5471
L22028 5471
" />
<path d="M22142 6071
L22171 6100
L22228 6128
L22371 6128
L22428 6100
L22457 6071
L22485 6014
L22485 5957
L22457 5871
L22114 5528
L22485 5528
" />
<path d="M15799 7694
L15799 8294
L16027 8294
L16085 8266
L16113 8237
L16142 8180
L16142 8094
L16113 8037
L16085 8008
L16027 7980
L15799 7980
" />
<path d="M16713 7694
L16370 7694
" />
<path d="M16542 7694
L16542 8294
L16485 8208
L16427 8151
L16370 8123
" />
<path d="M16913 8294
L17313 8294
L17056 7694
" />
<path d="M13442 5585
L13413 5557
L13327 5528
L13270 5528
L13185 5557
L13127 5614
L13099 5671
L13070 5785
L13070 5871
L13099 5985
L13127 6042
L13185 6100
L13270 6128
L13327 6128
L13413 6100
L13442 6071
" />
<path d="M13813 6128
L13927 6128
L13985 6100
L14042 6042
L14070 5928
L14070 5728
L14042 5614
L13985 5557
L13927 5528
L13813 5528
L13756 5557
L13699 5614
L13670 5728
L13670 5928
L13699 6042
L13756 6100
L13813 6128
" />
<path d="M14328 5528
L14328 6128
L14671 5528
L14671 6128
" />
<path d="M14957 5528
L14957 6128
L15300 5528
L15300 6128
" />
<path d="M15443 5471
L15900 5471
" />
<path d="M16214 6128
L16214 5700
L16186 5614
L16129 5557
L16043 5528
L15986 5528
" />
<path d="M16471 5557
L16557 5528
L16700 5528
L16757 5557
L16786 5585
L16814 5642
L16814 5700
L16786 5757
L16757 5785
L16700 5814
L16586 5842
L16528 5871
L16500 5900
L16471 5957
L16471 6014
L16500 6071
L16528 6100
L16586 6128
L16728 6128
L16814 6100
" />
<path d="M16985 6128
L17328 6128
" />
<path d="M17157 5528
L17157 6128
" />
<path d="M17385 5471
L17842 5471
" />
<path d="M17985 5528
L17985 6128
L18213 6128
L18271 6100
L18299 6071
L18328 6014
L18328 5928
L18299 5871
L18271 5842
L18213 5814
L17985 5814
" />
<path d="M18585 5528
L18585 6128
" />
<path d="M18585 5842
L18928 5842
" />
<path d="M18928 5528
L18928 6128
" />
<path d="M19071 5471
L19528 5471
" />
<path d="M19642 6071
L19671 6100
L19728 6128
L19871 6128
L19928 6100
L19957 6071
L19985 6014
L19985 5957
L19957 5871
L19614 5528
L19985 5528
" />
</g>
<g style="fill:#000000; fill-opacity:0.0; 
stroke:#000000; stroke-width:150; stroke-opacity:1; 
stroke-linecap:round; stroke-linejoin:round;">
<path d="M22516 10302
L22516 7546
" />
<path d="M23205 7546
L20449 7546
" />
<path d="M20449 7546
L20449 10302
" />
<path d="M20449 10302
L23205 10302
" />
<path d="M23205 10302
L23205 7546
" />
<path d="M1938 7546
L1938 10302
" />
<path d="M1249 10302
L4005 10302
" />
<path d="M4005 10302
L4005 7546
" />
<path d="M4005 7546
L1249 7546
" />
<path d="M1249 7546
L1249 10302
" />
<path d="M6766 8586
L9088 8586
" />
<path d="M9088 6224
L6766 6224
" />
<path d="M6766 6224
L6766 9216
" />
<path d="M9088 9216
L9088 6224
" />
<path d="M9266 8586
L11588 8586
" />
<path d="M11588 6224
L9266 6224
" />
<path d="M9266 6224
L9266 9216
" />
<path d="M11588 9216
L11588 6224
" />
<path d="M12866 8586
L15188 8586
" />
<path d="M15188 6224
L12866 6224
" />
<path d="M12866 6224
L12866 9216
" />
<path d="M15188 9216
L15188 6224
" />
<path d="M4266 8586
L6588 8586
" />
<path d="M6588 6224
L4266 6224
" />
<path d="M4266 6224
L4266 9216
" />
<path d="M6588 9216
L6588 6224
" />
<path d="M17866 8586
L20188 8586
" />
<path d="M20188 6224
L17866 6224
" />
<path d="M17866 6224
L17866 9216
" />
<path d="M20188 9216
L20188 6224
" />
<path d="M15366 8586
L17688 8586
" />
<path d="M17688 6224
L15366 6224
" />
<path d="M15366 6224
L15366 9216
" />
<path d="M17688 9216
L17688 6224
" />
</g>
<g style="fill:#000000; fill-opacity:0.0; 
stroke:#000000; stroke-width:19; stroke-opacity:1; 
stroke-linecap:round; stroke-linejoin:round;">
</g>
<g style="fill:#000000; fill-opacity:1.0; 
stroke:#000000; stroke-width:19; stroke-opacity:1; 
stroke-linecap:round; stroke-linejoin:round;">
<circle cx="21827" cy="8235" r="345" /> 
<circle cx="21827" cy="9613" r="345" /> 
<circle cx="2627" cy="9613" r="345" /> 
<circle cx="2627" cy="8235" r="345" /> 
<circle cx="8321" cy="8685" r="266" /> 
<circle cx="7533" cy="8685" r="266" /> 
<circle cx="10821" cy="8685" r="266" /> 
<circle cx="10033" cy="8685" r="266" /> 
<circle cx="14421" cy="8685" r="266" /> 
<circle cx="13633" cy="8685" r="266" /> 
<circle cx="5821" cy="8685" r="266" /> 
<circle cx="5033" cy="8685" r="266" /> 
<circle cx="19421" cy="8685" r="266" /> 
<circle cx="18633" cy="8685" r="266" /> 
<circle cx="16921" cy="8685" r="266" /> 
<circle cx="16133" cy="8685" r="266" /> 
</g>
<g style="fill:#FFFFFF; fill-opacity:1.0; 
stroke:#FFFFFF; stroke-width:19; stroke-opacity:1; 
stroke-linecap:round; stroke-linejoin:round;">
<circle cx="21827" cy="8235" r="226.5" /> 
<circle cx="21827" cy="9613" r="226.5" /> 
<circle cx="2627" cy="9613" r="226.5" /> 
<circle cx="2627" cy="8235" r="226.5" /> 
<circle cx="8321" cy="8685" r="128.5" /> 
<circle cx="7533" cy="8685" r="128.5" /> 
<circle cx="10821" cy="8685" r="128.5" /> 
<circle cx="10033" cy="8685" r="128.5" /> 
<circle cx="14421" cy="8685" r="128.5" /> 
<circle cx="13633" cy="8685" r="128.5" /> 
<circle cx="5821" cy="8685" r="128.5" /> 
<circle cx="5033" cy="8685" r="128.5" /> 
<circle cx="19421" cy="8685" r="128.5" /> 
<circle cx="18633" cy="8685" r="128.5" /> 
<circle cx="16921" cy="8685" r="128.5" /> 
<circle cx="16133" cy="8685" r="128.5" /> 
</g> 
</svg>
