<?xml version="1.0" standalone="no"?>
 <!DOCTYPE svg PUBLIC "-//W3C//DTD SVG 1.1//EN" 
 "http://www.w3.org/Graphics/SVG/1.1/DTD/svg11.dtd"> 
<svg xmlns="http://www.w3.org/2000/svg" version="1.1" 
    width="7.9883cm" height="4.5339cm" viewBox="0 0 31450 17850 ">
<title>SVG Picture created as double_in_cab_breakout-Back.svg date 2012/10/31 19:52:31 </title>
  <desc>Picture generated by PCBNEW </desc>
<g style="fill:#000000; fill-opacity:1;stroke:#000000; stroke-opacity:1;
stroke-linecap:round; stroke-linejoin:round; "
 transform="translate(0 0) scale(1 1)">
</g>
<g style="fill:#000000; fill-opacity:0.0; 
stroke:#000000; stroke-width:150; stroke-opacity:1; 
stroke-linecap:round; stroke-linejoin:round;">
<path d="M1227 13926
L30227 13926
" />
<path d="M30227 3926
L1227 3926
" />
<path d="M30227 3926
L30227 13926
" />
<path d="M1227 13926
L1227 3926
" />
</g>
<g style="fill:#000000; fill-opacity:0.0; 
stroke:#000000; stroke-width:19; stroke-opacity:1; 
stroke-linecap:round; stroke-linejoin:round;">
</g>
<g style="fill:#000000; fill-opacity:1.0; 
stroke:#000000; stroke-width:19; stroke-opacity:1; 
stroke-linecap:round; stroke-linejoin:round;">
<polyline style="fill-rule:evenodd;"
points="26362,8386
26892,8386
26892,8716
26362,8716
26362,8386
" /> 
<polyline style="fill-rule:evenodd;"
points="26362,9136
26892,9136
26892,9466
26362,9466
26362,9136
" /> 
<polyline style="fill-rule:evenodd;"
points="4562,8386
5092,8386
5092,8716
4562,8716
4562,8386
" /> 
<polyline style="fill-rule:evenodd;"
points="4562,9136
5092,9136
5092,9466
4562,9466
4562,9136
" /> 
<polyline style="fill-rule:evenodd;"
points="27237,7986
28017,7986
28017,8566
27237,8566
27237,7986
" /> 
<polyline style="fill-rule:evenodd;"
points="27237,9286
28017,9286
28017,9866
27237,9866
27237,9286
" /> 
<polyline style="fill-rule:evenodd;"
points="3437,7986
4217,7986
4217,8566
3437,8566
3437,7986
" /> 
<polyline style="fill-rule:evenodd;"
points="3437,9286
4217,9286
4217,9866
3437,9866
3437,9286
" /> 
<circle cx="21921" cy="9165" r="266" /> 
<circle cx="21133" cy="9165" r="266" /> 
<circle cx="25521" cy="9165" r="266" /> 
<circle cx="24733" cy="9165" r="266" /> 
<circle cx="6721" cy="9165" r="266" /> 
<circle cx="5933" cy="9165" r="266" /> 
<circle cx="18321" cy="9165" r="266" /> 
<circle cx="17533" cy="9165" r="266" /> 
<circle cx="13921" cy="9165" r="266" /> 
<circle cx="13133" cy="9165" r="266" /> 
<circle cx="10321" cy="9165" r="266" /> 
<circle cx="9533" cy="9165" r="266" /> 
<circle cx="28827" cy="9615" r="345" /> 
<circle cx="28827" cy="8237" r="345" /> 
<circle cx="2627" cy="8237" r="345" /> 
<circle cx="2627" cy="9615" r="345" /> 
</g>
<g style="fill:#000000; fill-opacity:1.0; 
stroke:#000000; stroke-width:500; stroke-opacity:1; 
stroke-linecap:round; stroke-linejoin:round;">
<path d="M5933 9165
L5933 6032
" />
<path d="M5933 6032
L5927 6026
" />
<path d="M24733 9165
L24733 5332
" />
<path d="M24733 5332
L24727 5326
" />
<path d="M13133 9165
L13133 8732
" />
<path d="M6721 8532
L6721 9165
" />
<path d="M6827 8426
L6721 8532
" />
<path d="M8527 8426
L6827 8426
" />
<path d="M9327 7626
L8527 8426
" />
<path d="M12027 7626
L9327 7626
" />
<path d="M13133 8732
L12027 7626
" />
<path d="M25521 9165
L25521 9732
" />
<path d="M17533 8520
L17533 9165
" />
<path d="M17627 8426
L17533 8520
" />
<path d="M22927 8426
L17627 8426
" />
<path d="M23327 8826
L22927 8426
" />
<path d="M23327 9726
L23327 8826
" />
<path d="M23527 9926
L23327 9726
" />
<path d="M25327 9926
L23527 9926
" />
<path d="M25521 9732
L25327 9926
" />
<path d="M13921 9165
L13921 9926
" />
<path d="M13927 9826
L13927 9926
" />
<path d="M13927 9920
L13927 9826
" />
<path d="M13921 9926
L13927 9920
" />
<path d="M18321 9165
L18321 9926
" />
<path d="M18327 9826
L18327 9926
" />
<path d="M18327 9920
L18327 9826
" />
<path d="M18321 9926
L18327 9920
" />
<path d="M21133 9165
L21133 9820
" />
<path d="M9533 8520
L9533 9165
" />
<path d="M9627 8426
L9533 8520
" />
<path d="M11527 8426
L9627 8426
" />
<path d="M11727 8626
L11527 8426
" />
<path d="M11727 9626
L11727 8626
" />
<path d="M12027 9926
L11727 9626
" />
<path d="M21027 9926
L18327 9926
" />
<path d="M18327 9926
L13927 9926
" />
<path d="M13927 9926
L12027 9926
" />
<path d="M21133 9820
L21027 9926
" />
<path d="M10321 9165
L10321 11720
" />
<path d="M10321 11720
L10327 11726
" />
<path d="M21921 9165
L21921 11520
" />
<path d="M21921 11520
L21927 11526
" />
</g>
<g style="fill:#000000; fill-opacity:1.0; 
stroke:#000000; stroke-width:19; stroke-opacity:1; 
stroke-linecap:round; stroke-linejoin:round;">
<polyline style="fill-rule:evenodd;"
points="29752,13451
29391,13451
29391,9647
29359,9429
29335,9370
29254,9329
28968,9615
29254,9901
29335,9860
29391,9647
29391,13451
29113,13451
29113,10042
28827,9756
28686,9897
28686,9615
28400,9329
28319,9370
28263,9583
28295,9801
28319,9860
28400,9901
28686,9615
28686,9897
28541,10042
28582,10123
28795,10179
29013,10147
29072,10123
29113,10042
29113,13451
28227,13451
28227,9726
28177,9676
27727,9676
27727,10026
27777,10076
27988,10075
28067,10075
28140,10044
28196,9988
28226,9915
28227,9726
28227,13451
27527,13451
5302,13451
4427,13451
3727,13451
3727,10026
3727,9676
3277,9676
3227,9726
3228,9915
3258,9988
3314,10044
3387,10075
3466,10075
3677,10076
3727,10026
3727,13451
3191,13451
3191,9647
3159,9429
3135,9370
3054,9329
2768,9615
3054,9901
3135,9860
3191,9647
3191,13451
2913,13451
2913,10042
2627,9756
2486,9897
2486,9615
2200,9329
2119,9370
2063,9583
2095,9801
2119,9860
2200,9901
2486,9615
2486,9897
2341,10042
2382,10123
2595,10179
2813,10147
2872,10123
2913,10042
2913,13451
1702,13451
1702,9126
2372,9126
2341,9188
2627,9474
2913,9188
2881,9126
3296,9126
3258,9164
3228,9237
3227,9426
3277,9476
3627,9476
3727,9476
3927,9476
3927,9676
3927,9776
3927,10026
3977,10076
4188,10075
4267,10075
4340,10044
4396,9988
4426,9915
4426,9776
4427,9776
4427,9726
4427,9632
4439,9644
4512,9675
4591,9675
4677,9676
4727,9626
4727,9501
4727,9388
4727,9214
4727,9201
4927,9201
4927,9214
4927,9388
4927,9501
4927,9626
4977,9676
5063,9675
5142,9675
5215,9644
5271,9588
5301,9515
5301,9501
5302,9501
5302,9438
5302,9405
5361,9547
5550,9737
5798,9840
6067,9840
6315,9737
6326,9725
6338,9737
6586,9840
6855,9840
7103,9737
7293,9548
7396,9300
7396,9126
8858,9126
8858,9299
8961,9547
9150,9737
9398,9840
9667,9840
9915,9737
10063,9588
10122,9647
10154,9614
10308,9649
10494,9617
10518,9607
10549,9534
10392,9377
10321,9306
10208,9193
10208,9137
10219,9126
10423,9126
10462,9165
10533,9236
10690,9393
10763,9362
10805,9178
10796,9126
11077,9126
11077,9621
11076,9626
11126,9875
11267,10086
11564,10383
11567,10386
11778,10527
12027,10576
13916,10576
13921,10577
13921,10576
13925,10576
13927,10576
18316,10576
18321,10577
18321,10576
18325,10576
18327,10576
21022,10576
21027,10577
21027,10576
21276,10527
21487,10386
21590,10281
21592,10280
21593,10280
21733,10070
21734,10069
21773,9870
21783,9821
21782,9820
21783,9820
21783,9620
21908,9649
22094,9617
22118,9607
22149,9534
21992,9377
21921,9306
21808,9193
21808,9137
21819,9126
22023,9126
22062,9165
22133,9236
22290,9393
22363,9362
22405,9178
22396,9126
22677,9126
22677,9721
22676,9726
22726,9975
22867,10186
23065,10383
23067,10386
23278,10527
23485,10567
23526,10576
23526,10575
23527,10576
25322,10576
25327,10577
25327,10576
25576,10527
25787,10386
25978,10193
25980,10192
25981,10192
26122,9981
26171,9732
26171,9559
26183,9588
26239,9644
26312,9675
26391,9675
26477,9676
26527,9626
26527,9501
26527,9388
26527,9214
26527,9201
26727,9201
26727,9214
26727,9388
26727,9501
26727,9626
26777,9676
26863,9675
26942,9675
27015,9644
27027,9632
27027,9726
27027,9776
27028,9915
27058,9988
27114,10044
27187,10075
27266,10075
27477,10076
27527,10026
27527,9776
27527,9676
27527,9476
27727,9476
27827,9476
28177,9476
28227,9426
28226,9237
28196,9164
28158,9126
28572,9126
28541,9188
28827,9474
29113,9188
29081,9126
29752,9126
29752,13451
" /> 
</g>
<g style="fill:#000000; fill-opacity:0.0; 
stroke:#000000; stroke-width:200; stroke-opacity:1; 
stroke-linecap:round; stroke-linejoin:round;">
<polyline fill="none;"
points="29752,13451
29391,13451
29391,9647
29359,9429
29335,9370
29254,9329
28968,9615
29254,9901
29335,9860
29391,9647
29391,13451
29113,13451
29113,10042
28827,9756
28686,9897
28686,9615
28400,9329
28319,9370
28263,9583
28295,9801
28319,9860
28400,9901
28686,9615
28686,9897
28541,10042
28582,10123
28795,10179
29013,10147
29072,10123
29113,10042
29113,13451
28227,13451
28227,9726
28177,9676
27727,9676
27727,10026
27777,10076
27988,10075
28067,10075
28140,10044
28196,9988
28226,9915
28227,9726
28227,13451
27527,13451
5302,13451
4427,13451
3727,13451
3727,10026
3727,9676
3277,9676
3227,9726
3228,9915
3258,9988
3314,10044
3387,10075
3466,10075
3677,10076
3727,10026
3727,13451
3191,13451
3191,9647
3159,9429
3135,9370
3054,9329
2768,9615
3054,9901
3135,9860
3191,9647
3191,13451
2913,13451
2913,10042
2627,9756
2486,9897
2486,9615
2200,9329
2119,9370
2063,9583
2095,9801
2119,9860
2200,9901
2486,9615
2486,9897
2341,10042
2382,10123
2595,10179
2813,10147
2872,10123
2913,10042
2913,13451
1702,13451
1702,9126
2372,9126
2341,9188
2627,9474
2913,9188
2881,9126
3296,9126
3258,9164
3228,9237
3227,9426
3277,9476
3627,9476
3727,9476
3927,9476
3927,9676
3927,9776
3927,10026
3977,10076
4188,10075
4267,10075
4340,10044
4396,9988
4426,9915
4426,9776
4427,9776
4427,9726
4427,9632
4439,9644
4512,9675
4591,9675
4677,9676
4727,9626
4727,9501
4727,9388
4727,9214
4727,9201
4927,9201
4927,9214
4927,9388
4927,9501
4927,9626
4977,9676
5063,9675
5142,9675
5215,9644
5271,9588
5301,9515
5301,9501
5302,9501
5302,9438
5302,9405
5361,9547
5550,9737
5798,9840
6067,9840
6315,9737
6326,9725
6338,9737
6586,9840
6855,9840
7103,9737
7293,9548
7396,9300
7396,9126
8858,9126
8858,9299
8961,9547
9150,9737
9398,9840
9667,9840
9915,9737
10063,9588
10122,9647
10154,9614
10308,9649
10494,9617
10518,9607
10549,9534
10392,9377
10321,9306
10208,9193
10208,9137
10219,9126
10423,9126
10462,9165
10533,9236
10690,9393
10763,9362
10805,9178
10796,9126
11077,9126
11077,9621
11076,9626
11126,9875
11267,10086
11564,10383
11567,10386
11778,10527
12027,10576
13916,10576
13921,10577
13921,10576
13925,10576
13927,10576
18316,10576
18321,10577
18321,10576
18325,10576
18327,10576
21022,10576
21027,10577
21027,10576
21276,10527
21487,10386
21590,10281
21592,10280
21593,10280
21733,10070
21734,10069
21773,9870
21783,9821
21782,9820
21783,9820
21783,9620
21908,9649
22094,9617
22118,9607
22149,9534
21992,9377
21921,9306
21808,9193
21808,9137
21819,9126
22023,9126
22062,9165
22133,9236
22290,9393
22363,9362
22405,9178
22396,9126
22677,9126
22677,9721
22676,9726
22726,9975
22867,10186
23065,10383
23067,10386
23278,10527
23485,10567
23526,10576
23526,10575
23527,10576
25322,10576
25327,10577
25327,10576
25576,10527
25787,10386
25978,10193
25980,10192
25981,10192
26122,9981
26171,9732
26171,9559
26183,9588
26239,9644
26312,9675
26391,9675
26477,9676
26527,9626
26527,9501
26527,9388
26527,9214
26527,9201
26727,9201
26727,9214
26727,9388
26727,9501
26727,9626
26777,9676
26863,9675
26942,9675
27015,9644
27027,9632
27027,9726
27027,9776
27028,9915
27058,9988
27114,10044
27187,10075
27266,10075
27477,10076
27527,10026
27527,9776
27527,9676
27527,9476
27727,9476
27827,9476
28177,9476
28227,9426
28226,9237
28196,9164
28158,9126
28572,9126
28541,9188
28827,9474
29113,9188
29081,9126
29752,9126
29752,13451
" /> 
</g>
<g style="fill:#000000; fill-opacity:1.0; 
stroke:#000000; stroke-width:19; stroke-opacity:1; 
stroke-linecap:round; stroke-linejoin:round;">
<polyline style="fill-rule:evenodd;"
points="29752,8626
29391,8626
29233,8626
29366,8493
29339,8466
29391,8269
29359,8051
29335,7992
29254,7951
29113,8092
29113,7810
29072,7729
28859,7673
28641,7705
28582,7729
28541,7810
28827,8096
29113,7810
29113,8092
29039,8166
28968,8237
28827,8378
28686,8237
28615,8166
28400,7951
28319,7992
28263,8205
28295,8423
28313,8467
28288,8493
28421,8626
28221,8626
28226,8615
28227,8426
28227,8126
28226,7937
28196,7864
28140,7808
28067,7777
27988,7777
27777,7776
27727,7826
27727,8176
28177,8176
28227,8126
28227,8426
28177,8376
27827,8376
27727,8376
27527,8376
27527,8176
27527,8076
27527,7826
27477,7776
27266,7777
27187,7777
27114,7808
27058,7864
27028,7937
27027,8076
27027,8126
27027,8220
27015,8208
26942,8177
26863,8177
26777,8176
26727,8226
26727,8351
26727,8464
26727,8626
26527,8626
26527,8464
26527,8226
26477,8176
26391,8177
26312,8177
26239,8208
26183,8264
26153,8337
26152,8414
26202,8464
26527,8464
26527,8626
25936,8626
25904,8593
25656,8490
25387,8490
25139,8593
25105,8626
23937,8626
23928,8577
23787,8366
23784,8363
23387,7966
23176,7825
22927,7775
22922,7776
17627,7776
17626,7776
17577,7785
17378,7825
17167,7966
17165,7968
17073,8060
16932,8271
16882,8520
16883,8525
16883,8626
14336,8626
14304,8593
14056,8490
13787,8490
13739,8509
13734,8483
13593,8272
12487,7166
12276,7025
12027,6975
12022,6976
9327,6976
9078,7025
8867,7166
8864,7169
8257,7776
6827,7776
6826,7776
6777,7785
6578,7825
6367,7966
6365,7968
6261,8072
6120,8283
6070,8532
6071,8537
6071,8626
5302,8626
5302,8414
5301,8337
5271,8264
5215,8208
5142,8177
5063,8177
4977,8176
4927,8226
4927,8464
5252,8464
5302,8414
5302,8626
4827,8626
4727,8626
4727,8464
4727,8351
4727,8226
4677,8176
4591,8177
4512,8177
4439,8208
4427,8220
4427,8126
4427,8076
4426,8076
4426,7937
4396,7864
4340,7808
4267,7777
4188,7777
3977,7776
3927,7826
3927,8076
3927,8176
3927,8376
3727,8376
3727,8176
3727,7826
3677,7776
3466,7777
3387,7777
3314,7808
3258,7864
3228,7937
3227,8126
3277,8176
3727,8176
3727,8376
3627,8376
3277,8376
3227,8426
3228,8615
3232,8626
3191,8626
3033,8626
3166,8493
3139,8466
3191,8269
3159,8051
3135,7992
3054,7951
2913,8092
2913,7810
2872,7729
2659,7673
2441,7705
2382,7729
2341,7810
2627,8096
2913,7810
2913,8092
2839,8166
2768,8237
2627,8378
2486,8237
2415,8166
2200,7951
2119,7992
2063,8205
2095,8423
2113,8467
2088,8493
2221,8626
1702,8626
1702,4401
29752,4401
29752,8626
" /> 
</g>
<g style="fill:#000000; fill-opacity:0.0; 
stroke:#000000; stroke-width:200; stroke-opacity:1; 
stroke-linecap:round; stroke-linejoin:round;">
<polyline fill="none;"
points="29752,8626
29391,8626
29233,8626
29366,8493
29339,8466
29391,8269
29359,8051
29335,7992
29254,7951
29113,8092
29113,7810
29072,7729
28859,7673
28641,7705
28582,7729
28541,7810
28827,8096
29113,7810
29113,8092
29039,8166
28968,8237
28827,8378
28686,8237
28615,8166
28400,7951
28319,7992
28263,8205
28295,8423
28313,8467
28288,8493
28421,8626
28221,8626
28226,8615
28227,8426
28227,8126
28226,7937
28196,7864
28140,7808
28067,7777
27988,7777
27777,7776
27727,7826
27727,8176
28177,8176
28227,8126
28227,8426
28177,8376
27827,8376
27727,8376
27527,8376
27527,8176
27527,8076
27527,7826
27477,7776
27266,7777
27187,7777
27114,7808
27058,7864
27028,7937
27027,8076
27027,8126
27027,8220
27015,8208
26942,8177
26863,8177
26777,8176
26727,8226
26727,8351
26727,8464
26727,8626
26527,8626
26527,8464
26527,8226
26477,8176
26391,8177
26312,8177
26239,8208
26183,8264
26153,8337
26152,8414
26202,8464
26527,8464
26527,8626
25936,8626
25904,8593
25656,8490
25387,8490
25139,8593
25105,8626
23937,8626
23928,8577
23787,8366
23784,8363
23387,7966
23176,7825
22927,7775
22922,7776
17627,7776
17626,7776
17577,7785
17378,7825
17167,7966
17165,7968
17073,8060
16932,8271
16882,8520
16883,8525
16883,8626
14336,8626
14304,8593
14056,8490
13787,8490
13739,8509
13734,8483
13593,8272
12487,7166
12276,7025
12027,6975
12022,6976
9327,6976
9078,7025
8867,7166
8864,7169
8257,7776
6827,7776
6826,7776
6777,7785
6578,7825
6367,7966
6365,7968
6261,8072
6120,8283
6070,8532
6071,8537
6071,8626
5302,8626
5302,8414
5301,8337
5271,8264
5215,8208
5142,8177
5063,8177
4977,8176
4927,8226
4927,8464
5252,8464
5302,8414
5302,8626
4827,8626
4727,8626
4727,8464
4727,8351
4727,8226
4677,8176
4591,8177
4512,8177
4439,8208
4427,8220
4427,8126
4427,8076
4426,8076
4426,7937
4396,7864
4340,7808
4267,7777
4188,7777
3977,7776
3927,7826
3927,8076
3927,8176
3927,8376
3727,8376
3727,8176
3727,7826
3677,7776
3466,7777
3387,7777
3314,7808
3258,7864
3228,7937
3227,8126
3277,8176
3727,8176
3727,8376
3627,8376
3277,8376
3227,8426
3228,8615
3232,8626
3191,8626
3033,8626
3166,8493
3139,8466
3191,8269
3159,8051
3135,7992
3054,7951
2913,8092
2913,7810
2872,7729
2659,7673
2441,7705
2382,7729
2341,7810
2627,8096
2913,7810
2913,8092
2839,8166
2768,8237
2627,8378
2486,8237
2415,8166
2200,7951
2119,7992
2063,8205
2095,8423
2113,8467
2088,8493
2221,8626
1702,8626
1702,4401
29752,4401
29752,8626
" /> 
</g>
<g style="fill:#FFFFFF; fill-opacity:0.0; 
stroke:#FFFFFF; stroke-width:19; stroke-opacity:1; 
stroke-linecap:round; stroke-linejoin:round;">
</g>
<g style="fill:#FFFFFF; fill-opacity:1.0; 
stroke:#FFFFFF; stroke-width:19; stroke-opacity:1; 
stroke-linecap:round; stroke-linejoin:round;">
<circle cx="21921" cy="9165" r="128.5" /> 
<circle cx="21133" cy="9165" r="128.5" /> 
<circle cx="25521" cy="9165" r="128.5" /> 
<circle cx="24733" cy="9165" r="128.5" /> 
<circle cx="6721" cy="9165" r="128.5" /> 
<circle cx="5933" cy="9165" r="128.5" /> 
<circle cx="18321" cy="9165" r="128.5" /> 
<circle cx="17533" cy="9165" r="128.5" /> 
<circle cx="13921" cy="9165" r="128.5" /> 
<circle cx="13133" cy="9165" r="128.5" /> 
<circle cx="10321" cy="9165" r="128.5" /> 
<circle cx="9533" cy="9165" r="128.5" /> 
<circle cx="28827" cy="9615" r="226.5" /> 
<circle cx="28827" cy="8237" r="226.5" /> 
<circle cx="2627" cy="8237" r="226.5" /> 
<circle cx="2627" cy="9615" r="226.5" /> 
</g> 
</svg>
